<?xml version="1.0" standalone="no"?>
<svg xmlns="http://www.w3.org/2000/svg" viewBox="0 0 137.4 36" width="137.4" height="36"><g fill="#ad27ae" color="#ad27ae" transform="translate(0 6.239999999999998) scale(0.5600001)"><svg width="50.0" height="42.0" x="0.0" y="0.0" viewBox="0 0 50 42"><path fill="currentColor" fill-rule="nonzero" d="M21.3 13.56l5.81 12.46-10.95-2.3-5.81-12.46 10.95 2.3zm20.86-9.73l5.81 12.46-10.95-2.3-5.81-12.46 10.95 2.3zm-8.91 36.83L8.44 36.19 16 24.99l12.1 2.54c.05.01.09.01.13.01.09 0 .18-.02.27-.06.01 0 .01-.01.01-.01.03-.01.05-.04.08-.06.03-.02.05-.05.08-.07.03-.03.07-.05.09-.08l8.11-12.01 11.19 2.35-14.81 23.06zm16.45-23.3c.01-.02.02-.03.03-.05.01-.05-.02-.08-.03-.13 0-.07.01-.13-.02-.2-.01-.02.01-.05-.01-.07L43.19 3c-.01-.02-.03-.02-.03-.03-.04-.07-.11-.11-.18-.16-.07-.05-.12-.11-.2-.14-.02-.01-.02-.02-.04-.03L30.22.01c-.04-.01-.08.03-.13.03-.07 0-.13 0-.19.02-.03.01-.06-.01-.08 0-.01.01-.02.03-.03.03-.05.03-.08.07-.12.12-.03.03-.08.03-.11.07l-8.11 12.01-12.1-2.54c-.05-.01-.08.02-.13.02-.07 0-.12 0-.19.02-.03.01-.06-.01-.08.01-.02.01-.02.03-.03.03-.05.03-.08.07-.12.12-.03.03-.08.03-.11.07L.34 22.37c-.02.02 0 .05-.02.08-.04.08-.04.15-.05.23-.01.08-.02.16.01.24.02.03 0 .05.01.08l6.49 13.91c.01.02.03.03.05.05.02.04.04.06.07.09.03.03.05.06.08.08.01.01.01.03.02.04 0 0 .01 0 .01.01.05.03.11.04.17.05.03.01.04.04.06.04l26.2 4.72a.61.61 0 0 0 .48-.12c.03-.02.05-.05.08-.07.03-.03.07-.05.1-.09l15.54-24.18c.02-.02 0-.05.01-.07.02-.04.03-.07.05-.1z"></path></svg></g><path fill="#ad27ae" fill-rule="nonzero" d="M18.22 17.40L12.60 17.40L11.90 15.07L6.12 15.07L5.42 17.40L0 17.40L6.02 0.89L12.19 0.89L18.22 17.40ZM8.98 5.50L7.22 11.38L10.80 11.38L9.07 5.50L8.98 5.50ZM27.58 4.42Q28.13 4.42 28.56 4.55Q28.99 4.68 28.99 4.70L28.99 4.70L28.99 8.71L27.46 8.71Q25.97 8.71 25.31 9.48Q24.65 10.25 24.65 11.76L24.65 11.76L24.65 17.40L19.87 17.40L19.87 4.73L23.78 4.73L24.10 6.65Q24.53 5.54 25.46 4.98Q26.40 4.42 27.58 4.42L27.58 4.42ZM37.49 4.44Q40.61 4.44 42.54 5.77Q44.47 7.10 44.47 9.84L44.47 9.84L39.84 9.84Q39.84 7.68 37.49 7.68L37.49 7.68Q35.14 7.68 35.14 10.39L35.14 10.39L35.14 11.76Q35.14 14.45 37.58 14.45L37.58 14.45Q40.03 14.45 40.03 12.24L40.03 12.24L44.47 12.24Q44.47 15.00 42.54 16.34Q40.61 17.69 37.49 17.69L37.49 17.69Q34.15 17.69 32.26 16.01Q30.36 14.33 30.36 11.06L30.36 11.06Q30.36 7.80 32.26 6.12Q34.15 4.44 37.49 4.44L37.49 4.44ZM53.21 4.44Q56.11 4.44 57.94 5.41Q59.76 6.38 59.76 8.57L59.76 8.57L59.76 13.51Q59.76 13.92 59.95 14.18Q60.14 14.45 60.53 14.45L60.53 14.45L61.39 14.45L61.39 17.21Q61.32 17.26 61.02 17.36Q60.72 17.47 60.17 17.58Q59.62 17.69 58.90 17.69L58.90 17.69Q57.50 17.69 56.60 17.27Q55.70 16.85 55.37 16.10L55.37 16.10Q54.46 16.82 53.33 17.26Q52.20 17.69 50.69 17.69L50.69 17.69Q46.22 17.69 46.22 14.14L46.22 14.14Q46.22 12.29 47.22 11.32Q48.22 10.34 50.09 9.98Q51.96 9.62 54.98 9.62L54.98 9.62L54.98 9.00Q54.98 8.26 54.47 7.87Q53.95 7.49 53.14 7.49L53.14 7.49Q52.39 7.49 51.85 7.75Q51.31 8.02 51.31 8.59L51.31 8.59L51.31 8.69L46.61 8.69Q46.58 8.57 46.58 8.35L46.58 8.35Q46.58 6.55 48.30 5.50Q50.02 4.44 53.21 4.44L53.21 4.44ZM54.98 11.88Q52.94 11.88 51.97 12.32Q51.00 12.77 51.00 13.51L51.00 13.51Q51.00 14.71 52.63 14.71L52.63 14.71Q53.57 14.71 54.28 14.21Q54.98 13.70 54.98 12.96L54.98 12.96L54.98 11.88ZM76.06 17.40L72.17 17.40L71.76 15.60Q70.37 17.69 67.73 17.69L67.73 17.69Q65.16 17.69 63.77 16.01Q62.38 14.33 62.38 11.04L62.38 11.04Q62.38 7.78 63.77 6.11Q65.16 4.44 67.73 4.44L67.73 4.44Q69.91 4.44 71.28 5.90L71.28 5.90L71.28 0L76.06 0L76.06 17.40ZM69.22 7.97Q67.15 7.97 67.15 10.44L67.15 10.44L67.15 11.71Q67.15 14.16 69.22 14.16L69.22 14.16Q70.27 14.16 70.80 13.42Q71.33 12.67 71.33 11.47L71.33 11.47L71.33 10.68Q71.33 9.48 70.80 8.72Q70.27 7.97 69.22 7.97L69.22 7.97ZM83.90 3.24L79.13 3.24L79.13 0L83.90 0L83.90 3.24ZM83.90 17.40L79.13 17.40L79.13 4.73L83.90 4.73L83.90 17.40ZM93.22 4.44Q96.12 4.44 97.94 5.41Q99.77 6.38 99.77 8.57L99.77 8.57L99.77 13.51Q99.77 13.92 99.96 14.18Q100.15 14.45 100.54 14.45L100.54 14.45L101.40 14.45L101.40 17.21Q101.33 17.26 101.03 17.36Q100.73 17.47 100.18 17.58Q99.62 17.69 98.90 17.69L98.90 17.69Q97.51 17.69 96.61 17.27Q95.71 16.85 95.38 16.10L95.38 16.10Q94.46 16.82 93.34 17.26Q92.21 17.69 90.70 17.69L90.70 17.69Q86.23 17.69 86.23 14.14L86.23 14.14Q86.23 12.29 87.23 11.32Q88.22 10.34 90.10 9.98Q91.97 9.62 94.99 9.62L94.99 9.62L94.99 9.00Q94.99 8.26 94.48 7.87Q93.96 7.49 93.14 7.49L93.14 7.49Q92.40 7.49 91.86 7.75Q91.32 8.02 91.32 8.59L91.32 8.59L91.32 8.69L86.62 8.69Q86.59 8.57 86.59 8.35L86.59 8.35Q86.59 6.55 88.31 5.50Q90.02 4.44 93.22 4.44L93.22 4.44ZM94.99 11.88Q92.95 11.88 91.98 12.32Q91.01 12.77 91.01 13.51L91.01 13.51Q91.01 14.71 92.64 14.71L92.64 14.71Q93.58 14.71 94.28 14.21Q94.99 13.70 94.99 12.96L94.99 12.96L94.99 11.88Z" transform="translate(36, 9.3)"></path></svg>